<svg width="1000" height="1000" xmlns="http://www.w3.org/2000/svg">
 <metadata>Svg Vector Icons : http://www.sfont.cn</metadata>

 <g>
  <title>background</title>
  <rect fill="none" id="canvas_background" height="402" width="582" y="-1" x="-1"/>
 </g>
 <g>
  <title>Layer 1</title>
  <g fill="white" stroke="null" id="svg_1">
   <g stroke="null" id="svg_2" transform="translate(0,224) scale(0.10000000149011612,-0.10000000149011612) ">
    <path fill="#BBBBBB" stroke="null" id="svg_3" d="m2395.534204,1857.593403c-130.651208,-66.517883 -247.197566,-203.392937 -296.604839,-348.125136c-24.743936,-66.517883 -38.848786,-496.785909 -38.848786,-1107.054004l0,-993.571817l-282.49999,0l-282.580589,0l0,-1087.500425c0,-958.393232 7.092724,-1126.607583 70.604848,-1392.58983c183.604843,-805.803887 730.953611,-1474.732719 1423.058436,-1744.643539l183.604843,-70.446456l10.558487,-981.875384l7.173324,-981.786098l1129.999959,0l1129.999959,0l7.092724,981.875384l10.558487,981.875384l183.604843,70.446456c497.860895,191.607218 981.697539,657.143114 1221.80238,1161.786169c240.104841,512.410915 271.941502,735.446716 271.941502,1975.447201l0,1087.500425l-282.49999,0l-278.953627,0l-10.558487,1052.232554c-10.558487,993.571817 -14.10485,1060.0897 -84.709697,1161.786169c-137.743932,207.32151 -250.743928,269.91082 -473.197558,269.91082s-335.453625,-62.58931 -473.197558,-269.91082c-70.604848,-101.696468 -74.15121,-168.214351 -84.709697,-1161.786169l-10.558487,-1052.232554l-1126.614795,0l-1126.453596,0l-10.639087,1052.232554c-10.558487,993.571817 -14.10485,1060.0897 -84.709697,1161.786169c-38.848786,58.660737 -112.999996,144.732199 -162.407269,183.839358c-120.09272,97.767895 -399.046348,125.17862 -540.256043,50.803591z"/>
   </g>
  </g>
  <path stroke="null" id="svg_6" d="m623.16245,726.2527l97.49456,0l0,-89.56279l100.0109,0l0,89.56279l97.49457,0l0,91.87443l-97.49457,0l0,89.56279l-100.0109,0l0,-89.56279l-97.49456,0l0,-45.93722l0,-45.93721z" stroke-width="1.5" fill="#BBBBBB"/>
 </g>
</svg>