<?xml version="1.0" standalone="no"?><!DOCTYPE svg PUBLIC "-//W3C//DTD SVG 1.1//EN" "http://www.w3.org/Graphics/SVG/1.1/DTD/svg11.dtd"><svg t="1528365816188" class="icon" style="" viewBox="0 0 1024 1024" version="1.1" xmlns="http://www.w3.org/2000/svg" p-id="2736" xmlns:xlink="http://www.w3.org/1999/xlink" width="200" height="200"><defs><style type="text/css"></style></defs><path d="M744.57088 116.736h-389.12a61.44 61.44 0 0 0-61.44 61.44v191.13984a61.44 61.44 0 0 0 61.44 61.44h98.9184v375.45984c0 13.66016 4.52608 26.91072 12.92288 37.6832l30.76096 39.58784a61.44 61.44 0 0 0 97.03424 0l30.72-39.58784c8.3968-10.77248 12.92288-24.04352 12.92288-37.6832v-375.45984h105.84064a61.44 61.44 0 0 0 61.44-61.44v-191.13984a61.44 61.44 0 0 0-61.44-61.44z m-58.04032 163.16416h-273.08032a40.96 40.96 0 0 1 0-81.92h273.08032a40.96 40.96 0 0 1 0 81.92z" p-id="2737" fill="#BBBBBB"></path></svg>