<svg width="1024" height="1024" xmlns="http://www.w3.org/2000/svg" class="icon">
 <defs>
  <style type="text/css"/>
 </defs>
 <g>
  <title>background</title>
  <rect fill="none" id="canvas_background" height="402" width="582" y="-1" x="-1"/>
 </g>
 <g>
  <title>Layer 1</title>
  <path id="svg_1" fill="#BBBBBB" d="m539.108327,69.461429l-389.12,0a61.44,61.44 0 0 0 -61.44,61.44l0,191.13984a61.44,61.44 0 0 0 61.44,61.44l98.9184,0l0,375.45984c0,13.66016 4.52608,26.91072 12.92288,37.6832l30.76096,39.58784a61.44,61.44 0 0 0 97.03424,0l30.72,-39.58784c8.3968,-10.77248 12.92288,-24.04352 12.92288,-37.6832l0,-375.45984l105.84064,0a61.44,61.44 0 0 0 61.44,-61.44l0,-191.13984a61.44,61.44 0 0 0 -61.44,-61.44zm-58.04032,163.16416l-273.08032,0a40.96,40.96 0 0 1 0,-81.92l273.08032,0a40.96,40.96 0 0 1 0,81.92z"/>
  <path id="svg_2" fill="#BBBBBB" d="m826.392256,122.190753l-389.12,0a61.44,61.44 0 0 0 -61.44,61.44l0,191.13984a61.44,61.44 0 0 0 61.44,61.44l98.9184,0l0,375.45984c0,13.66016 4.52608,26.91072 12.92288,37.6832l30.76096,39.58784a61.44,61.44 0 0 0 97.03424,0l30.72,-39.58784c8.3968,-10.77248 12.92288,-24.04352 12.92288,-37.6832l0,-375.45984l105.84064,0a61.44,61.44 0 0 0 61.44,-61.44l0,-191.13984a61.44,61.44 0 0 0 -61.44,-61.44zm-58.04032,163.16416l-273.08032,0a40.96,40.96 0 0 1 0,-81.92l273.08032,0a40.96,40.96 0 0 1 0,81.92z"/>
 </g>
</svg>