<?xml version="1.0" standalone="no"?>
<!DOCTYPE svg PUBLIC "-//W3C//DTD SVG 20010904//EN"
 "http://www.w3.org/TR/2001/REC-SVG-20010904/DTD/svg10.dtd">
<svg version="1.0" xmlns="http://www.w3.org/2000/svg"
 width="512.000000pt" height="512.000000pt" viewBox="0 0 512.000000 512.000000"
 preserveAspectRatio="xMidYMid meet">
<g transform="translate(0.000000,512.000000) scale(0.100000,-0.100000)"
fill="#BBBBBB" stroke="none">
<path d="M4300 5105 c-185 -50 -341 -177 -424 -345 -95 -191 -98 -385 -11
-575 156 -340 556 -481 893 -315 150 75 282 225 333 381 21 65 24 92 24 219
-1 131 -3 151 -27 212 -75 197 -230 348 -418 410 -86 28 -289 35 -370 13z"/>
<path d="M2045 4464 c-22 -2 -87 -11 -145 -20 -916 -134 -1665 -841 -1854
-1749 -64 -310 -62 -640 5 -955 68 -316 249 -683 464 -939 84 -101 250 -261
355 -342 287 -222 606 -363 991 -436 139 -26 600 -26 749 1 357 64 675 201
966 416 114 85 303 266 391 375 330 409 503 895 503 1413 0 765 -372 1456
-1010 1877 -260 171 -544 282 -865 336 -116 20 -448 33 -550 23z m1312 -698
c98 -32 215 -106 276 -177 105 -122 156 -245 164 -400 17 -305 -170 -564 -472
-655 -96 -29 -258 -25 -361 9 -472 156 -603 751 -238 1086 88 81 211 141 334
165 63 12 217 -3 297 -28z m-2457 -1851 l0 -635 365 0 365 0 0 -75 0 -75 -455
0 -455 0 0 710 0 710 90 0 90 0 0 -635z m2545 265 c87 -13 185 -59 224 -107
58 -70 61 -93 61 -465 0 -330 1 -339 21 -359 16 -16 30 -20 60 -17 l39 4 0
-58 0 -57 -46 -7 c-25 -3 -68 -4 -95 -2 -62 6 -105 44 -121 105 -6 24 -13 43
-15 43 -3 0 -33 -22 -67 -49 -99 -78 -157 -103 -256 -109 -108 -6 -187 10
-247 51 -66 45 -100 92 -119 167 -14 55 -15 75 -4 132 30 169 138 243 391 267
179 18 237 30 270 58 27 23 29 30 29 92 0 85 -24 125 -95 161 -43 22 -63 25
-150 25 -84 0 -107 -4 -142 -23 -50 -26 -91 -82 -99 -134 l-7 -38 -75 0 -75 0
7 46 c28 207 227 314 511 274z m-1463 -412 l3 -393 25 -45 c14 -24 40 -54 58
-66 43 -29 129 -40 198 -25 98 22 163 88 204 210 18 56 20 85 20 386 l0 325
80 0 80 0 0 -515 0 -515 -75 0 -75 0 0 75 c0 41 -3 75 -7 74 -5 0 -25 -23 -46
-50 -74 -98 -172 -136 -325 -126 -100 6 -171 37 -230 101 -70 76 -72 93 -72
553 l0 403 79 0 80 0 3 -392z"/>
<path d="M3525 1645 c-11 -7 -94 -25 -185 -40 -179 -28 -237 -49 -272 -97 -49
-69 -29 -193 40 -246 33 -25 42 -27 136 -27 88 0 108 3 156 26 72 34 129 84
151 134 14 31 19 65 19 153 0 118 -3 126 -45 97z"/>
</g>
</svg>
